<?xml version="1.0" encoding="utf-8"?>
<!-- Generator: Adobe Illustrator 16.0.0, SVG Export Plug-In . SVG Version: 6.00 Build 0)  -->
<!DOCTYPE svg PUBLIC "-//W3C//DTD SVG 1.1//EN" "http://www.w3.org/Graphics/SVG/1.1/DTD/svg11.dtd">
<svg version="1.1" id="Layer_1" xmlns="http://www.w3.org/2000/svg" xmlns:xlink="http://www.w3.org/1999/xlink" x="0px" y="0px"
	 width="588.667px" height="150.667px" viewBox="0 0 588.667 150.667" enable-background="new 0 0 588.667 150.667"
	 xml:space="preserve">
<g>
	<!-- BlogSphere text -->
	<text transform="matrix(1 0 0 1 50 95)" font-family="Arial" font-weight="bold" font-size="70" fill="#0E2748">BlogSphere</text>
	<!-- Simple circular graphic element -->
	<circle fill="#F04F35" cx="500" cy="76.809" r="45.857"/>
	<path fill="#FFFFFF" d="M488.41,99.16c-4.113-6.715-6.293-14.438-6.293-22.343c-0.004-5.362,0.973-10.594,2.916-15.557
		c0.803-2.057,3.133-3.062,5.172-2.27c2.063,0.805,3.078,3.123,2.271,5.184c-1.568,4.028-2.369,8.275-2.363,12.636
		c0,6.434,1.77,12.715,5.115,18.164c1.152,1.888,0.563,4.345-1.314,5.498c-0.656,0.402-1.375,0.595-2.088,0.595
		C490.482,101.067,489.166,100.388,488.41,99.16z"/>
</g>
</svg>
